<svg xmlns="http://www.w3.org/2000/svg" xmlns:xlink="http://www.w3.org/1999/xlink" version="1.1" id="Layer_1" x="0px" y="0px" width="70.833px" height="100px" viewBox="2.12465 -12.0 70.833 135.0" enable-background="new -1.417 -2 70.833 100" xml:space="preserve">
<rect x="31.917" y="-2" width="8.333" height="4.167"/>
<polygon points="11.083,48 11.083,52.167 15.25,52.167 15.25,56.333 19.417,56.333 19.417,52.143 19.417,48 19.417,35.5 15.25,35.5   15.25,48 "/>
<rect x="2.75" y="43.833" width="8.333" height="4.167"/>
<rect x="-1.417" y="48" width="4.167" height="8.333"/>
<rect x="2.75" y="56.333" width="4.167" height="4.167"/>
<rect x="6.917" y="60.5" width="4.167" height="8.333"/>
<rect x="11.083" y="68.833" width="4.167" height="8.334"/>
<rect x="15.25" y="77.167" width="4.167" height="8.333"/>
<rect x="19.417" y="85.5" width="4.167" height="8.333"/>
<rect x="23.583" y="93.833" width="33.333" height="4.167"/>
<rect x="56.917" y="85.5" width="4.166" height="8.333"/>
<rect x="61.083" y="73" width="4.167" height="12.5"/>
<rect x="65.25" y="43.833" width="4.167" height="29.167"/>
<rect x="61.083" y="39.667" width="4.167" height="4.167"/>
<polygon points="61.083,39.667 61.083,35.5 56.784,35.5 52.75,35.5 52.75,39.713 52.75,52.167 56.917,52.167 56.917,39.667 "/>
<polygon points="40.25,35.57 40.25,47.998 40.25,48 44.417,48 44.417,47.998 44.417,35.5 52.75,35.5 52.75,31.333 44.417,31.333   44.417,2.167 40.25,2.167 40.25,31.428 "/>
<polygon points="27.75,43.833 31.917,43.833 31.917,2.167 27.75,2.167 27.75,31.333 19.417,31.333 19.417,35.5 27.75,35.5 "/>
<text x="-1.417" y="115.5" font-size="5.0" font-weight="bold" font-family="Helvetica Neue, Helvetica, Arial-Unicode, Arial, Sans-serif" fill="#000000">Created by Marat</text><text x="-1.417" y="120.5" font-size="5.0" font-weight="bold" font-family="Helvetica Neue, Helvetica, Arial-Unicode, Arial, Sans-serif" fill="#000000">from the Noun Project</text></svg>